<svg xmlns="http://www.w3.org/2000/svg" fill="none" viewBox="0 0 160 24" height="24" width="160"><g clip-path="url(#clip0_1249_84993)"><path d="M13.1792 8.0035L12.565 10.011C12.5597 10.0287 12.5586 10.0474 12.5618 10.0656C12.5649 10.0838 12.5722 10.101 12.5831 10.1158C12.5939 10.1307 12.6081 10.1427 12.6244 10.1511C12.6407 10.1594 12.6587 10.1637 12.6769 10.1638H23.8224C23.8964 10.164 23.9693 10.1817 24.0354 10.2156C24.1014 10.2495 24.1586 10.2985 24.2025 10.3588C24.2464 10.4192 24.2757 10.4891 24.2881 10.5629C24.3005 10.6368 24.2956 10.7126 24.2739 10.7842L22.615 16.2612C22.585 16.3587 22.525 16.4438 22.4437 16.5043C22.3625 16.5647 22.2643 16.5973 22.1635 16.5971H10.9152C10.8143 16.5973 10.716 16.6301 10.6348 16.6908C10.5536 16.7514 10.4936 16.8368 10.4637 16.9343L8.49639 23.3295C8.46626 23.427 8.40626 23.5122 8.32509 23.5728C8.24391 23.6335 8.14577 23.6664 8.0449 23.6667H0.472316C0.3989 23.6663 0.326589 23.6486 0.261093 23.615C0.195596 23.5814 0.138708 23.5329 0.0949211 23.4732C0.0511337 23.4136 0.021646 23.3444 0.00878658 23.2712C-0.00407287 23.1981 4.80457e-05 23.1229 0.0208239 23.0516L6.85956 0.670464C6.88951 0.572889 6.94946 0.487549 7.03068 0.42689C7.1119 0.36623 7.21013 0.333423 7.31106 0.333252H30.6872C30.7613 0.333162 30.8344 0.350724 30.9005 0.38452C30.9667 0.418315 31.024 0.467396 31.068 0.527794C31.1119 0.588192 31.1412 0.658213 31.1535 0.732195C31.1658 0.806178 31.1607 0.882047 31.1387 0.953669L29.187 7.32908C29.157 7.42666 29.0971 7.512 29.0158 7.57265C28.9346 7.63331 28.8364 7.66612 28.7355 7.66629H13.6306C13.5297 7.66646 13.4315 7.69927 13.3503 7.75993C13.2691 7.82059 13.2091 7.90593 13.1792 8.0035Z" fill="currentColor"></path><path d="M34.4409 23.6667H26.8696C26.7958 23.6671 26.7228 23.65 26.6567 23.6168C26.5905 23.5835 26.5329 23.5351 26.4886 23.4753C26.4442 23.4156 26.4142 23.3461 26.4011 23.2725C26.388 23.199 26.392 23.1233 26.4129 23.0516L33.2569 0.670464C33.2868 0.572889 33.3468 0.487549 33.428 0.42689C33.5092 0.36623 33.6074 0.333423 33.7084 0.333252H41.2796C41.3537 0.333162 41.4268 0.350724 41.493 0.38452C41.5591 0.418315 41.6165 0.467396 41.6605 0.527794C41.7044 0.588192 41.7337 0.658213 41.746 0.732195C41.7583 0.806178 41.7532 0.882047 41.7311 0.953669L34.8924 23.3295C34.8626 23.4272 34.8027 23.5127 34.7215 23.5734C34.6402 23.634 34.5419 23.6668 34.4409 23.6667Z" fill="currentColor"></path><path d="M69.6782 7.66637H60.5026C60.4017 7.66633 60.3033 7.69906 60.2221 7.75975C60.1408 7.82044 60.0809 7.9059 60.0511 8.00358L55.3671 23.3296C55.3371 23.4272 55.2772 23.5125 55.196 23.5732C55.1147 23.6338 55.0165 23.6666 54.9156 23.6668H47.3404C47.2663 23.6669 47.1932 23.6493 47.1271 23.6155C47.0609 23.5817 47.0035 23.5327 46.9596 23.4723C46.9156 23.4119 46.8863 23.3419 46.8741 23.2679C46.8618 23.1939 46.8669 23.118 46.8889 23.0464L51.3947 8.28679C51.4165 8.21517 51.4214 8.13939 51.409 8.06553C51.3966 7.99166 51.3672 7.92177 51.3233 7.86145C51.2794 7.80112 51.2222 7.75206 51.1562 7.71818C51.0902 7.6843 51.0172 7.66656 50.9432 7.66637H42.3519C42.2776 7.66702 42.2042 7.64992 42.1377 7.61646C42.0711 7.58301 42.0134 7.53413 41.969 7.47382C41.9246 7.4135 41.8949 7.34344 41.8823 7.26932C41.8697 7.19521 41.8746 7.11913 41.8965 7.04727L43.8482 0.670539C43.8781 0.572964 43.9381 0.487625 44.0193 0.426965C44.1005 0.366306 44.1987 0.333499 44.2997 0.333328H71.6234C71.6981 0.331981 71.7722 0.348623 71.8393 0.381883C71.9065 0.415143 71.9649 0.464072 72.0097 0.524644C72.0546 0.585216 72.0846 0.655701 72.0973 0.7303C72.1099 0.804899 72.1049 0.88148 72.0827 0.953745L70.131 7.32916C70.1012 7.42706 70.0411 7.51267 69.9595 7.57338C69.878 7.63409 69.7794 7.66669 69.6782 7.66637Z" fill="currentColor"></path><path d="M97.8581 16.7671C96.6871 20.6002 93.4772 23.6667 88.2428 23.6667H67.815C67.7412 23.6672 67.6683 23.6501 67.6021 23.6169C67.536 23.5836 67.4785 23.5352 67.4342 23.4753C67.3899 23.4155 67.3601 23.346 67.3472 23.2724C67.3342 23.1988 67.3385 23.1232 67.3596 23.0516L74.1984 0.670464C74.2282 0.572779 74.2881 0.487322 74.3693 0.426633C74.4506 0.365943 74.5489 0.333216 74.6499 0.333252H94.3854C99.6212 0.333252 100.501 2.73325 99.4208 6.2608C98.9628 7.76113 97.8022 9.29044 96.276 10.6274C97.836 12.1001 98.6323 14.2327 97.8581 16.7671ZM89.501 16.1005C89.8783 14.8663 88.8244 14.8663 87.9683 14.8663H78.4206L77.6659 17.3335H87.2149C88.071 17.3335 89.1276 17.3335 89.501 16.1005ZM80.3553 8.53303H88.2571C89.1132 8.53303 90.1672 8.53303 90.5549 7.26717C90.9426 6.00131 89.8874 5.99999 89.0313 5.99999H81.1295L80.3553 8.53303Z" fill="currentColor"></path><path d="M100.369 11.9671C102.845 3.86608 108.372 0 118.515 0C128.622 0 131.804 3.90033 129.344 11.9671C126.872 20.0667 121.287 24 111.179 24C101.038 24 97.8839 20.0997 100.369 11.9671ZM120.784 11.9671C121.527 9.53282 121.343 7.33304 116.273 7.33304C111.202 7.33304 109.685 9.49989 108.93 11.9671C108.165 14.4698 108.383 16.667 113.421 16.667C118.459 16.667 120.029 14.4329 120.784 11.9671Z" fill="currentColor"></path><path d="M159.287 12C156.863 19.9337 150.486 23.6667 144.923 23.6667H128.441C128.367 23.6665 128.294 23.6488 128.228 23.6149C128.162 23.581 128.105 23.532 128.061 23.4717C128.017 23.4113 127.988 23.3414 127.975 23.2676C127.963 23.1937 127.968 23.1179 127.99 23.0463L134.828 0.670464C134.858 0.572888 134.918 0.487549 135 0.42689C135.081 0.36623 135.179 0.333423 135.28 0.333252H152.053C157.618 0.333252 161.712 4.06629 159.287 12ZM150.727 12C152.051 7.66629 149.022 7.66629 147.177 7.66629H141.6C141.499 7.66646 141.4 7.69927 141.319 7.75993C141.238 7.82059 141.178 7.90593 141.148 8.0035L138.792 15.7133C138.77 15.7849 138.765 15.8607 138.777 15.9345C138.79 16.0084 138.819 16.0783 138.863 16.1386C138.907 16.1989 138.964 16.248 139.03 16.2819C139.096 16.3158 139.169 16.3335 139.243 16.3337H144.53C146.377 16.3337 149.402 16.3337 150.727 12Z" fill="currentColor"></path></g><defs><clipPath id="clip0_1249_84993"><rect width="160" height="24" fill="currentColor"></rect></clipPath></defs></svg>
